<svg xmlns="http://www.w3.org/2000/svg" viewBox="0 0 927.19 167.6"><path d="M46.53 129.45c-7.22 0-13.71-1.24-19.46-3.72s-10.63-5.84-14.64-10.07c-4-4.23-7.08-9.11-9.22-14.64C1.07 95.49 0 89.68 0 83.59s1.07-12.07 3.21-17.6c2.14-5.53 5.22-10.41 9.22-14.64 4-4.23 8.88-7.58 14.64-10.07 5.75-2.48 12.24-3.72 19.46-3.72s13.68 1.24 19.37 3.72c5.69 2.48 10.55 5.84 14.55 10.07s7.08 9.11 9.22 14.64c2.14 5.53 3.21 11.39 3.21 17.6s-1.07 11.9-3.21 17.43c-2.14 5.53-5.19 10.41-9.14 14.64s-8.8 7.59-14.55 10.07-12.24 3.72-19.46 3.72ZM23.35 83.6c0 3.95.59 7.53 1.78 10.74 1.18 3.21 2.82 6.01 4.91 8.38 2.09 2.37 4.54 4.2 7.36 5.5 2.82 1.3 5.86 1.95 9.14 1.95s6.32-.65 9.14-1.95c2.82-1.29 5.27-3.13 7.36-5.5 2.09-2.37 3.72-5.19 4.91-8.46 1.18-3.27 1.78-6.88 1.78-10.83s-.59-7.39-1.78-10.66c-1.18-3.27-2.82-6.09-4.91-8.46-2.09-2.37-4.54-4.2-7.36-5.5-2.82-1.3-5.87-1.95-9.14-1.95s-6.32.68-9.14 2.03a22.914 22.914 0 0 0-7.36 5.58c-2.09 2.37-3.72 5.19-4.91 8.46-1.18 3.27-1.78 6.83-1.78 10.66ZM190.52 127.76h-22.67V78.01c0-7.11-1.24-12.29-3.72-15.57-2.48-3.27-5.92-4.91-10.32-4.91-2.26 0-4.57.45-6.94 1.35-2.37.9-4.6 2.17-6.68 3.81-2.09 1.64-3.98 3.58-5.67 5.84a23.211 23.211 0 0 0-3.72 7.44v51.78h-22.67V39.09h20.47V55.5c3.27-5.64 8.01-10.04 14.21-13.2 6.2-3.16 13.2-4.74 20.98-4.74 5.53 0 10.04 1.01 13.54 3.04 3.5 2.03 6.2 4.68 8.12 7.95 1.92 3.27 3.24 7 3.98 11.17.73 4.17 1.1 8.4 1.1 12.69v55.33ZM204.73 83.43c0-6.2 1.07-12.07 3.21-17.6 2.14-5.53 5.25-10.38 9.31-14.55 4.06-4.17 8.97-7.5 14.72-9.98 5.75-2.48 12.24-3.72 19.46-3.72 9.7 0 17.96 2.09 24.79 6.26 6.82 4.17 11.93 9.64 15.31 16.41l-22.17 6.77c-1.92-3.27-4.46-5.78-7.61-7.53-3.16-1.75-6.66-2.62-10.49-2.62-3.27 0-6.32.65-9.14 1.95-2.82 1.3-5.27 3.1-7.36 5.41-2.09 2.31-3.72 5.11-4.91 8.38-1.18 3.27-1.78 6.88-1.78 10.83s.62 7.56 1.86 10.83c1.24 3.27 2.9 6.09 4.99 8.46 2.09 2.37 4.54 4.2 7.36 5.5 2.82 1.3 5.81 1.95 8.97 1.95 4.06 0 7.81-1.02 11.25-3.05 3.44-2.03 5.84-4.51 7.19-7.44l22.17 6.77c-3.05 6.77-8.07 12.3-15.06 16.58-7 4.29-15.4 6.43-25.21 6.43-7.22 0-13.71-1.24-19.46-3.72s-10.66-5.84-14.72-10.07c-4.06-4.23-7.19-9.14-9.39-14.72s-3.3-11.42-3.3-17.51ZM346.01 129.45c-7.11 0-13.54-1.21-19.29-3.64-5.75-2.42-10.66-5.72-14.72-9.9-4.06-4.17-7.19-9.02-9.39-14.55-2.2-5.53-3.3-11.34-3.3-17.43s1.07-12.27 3.21-17.85c2.14-5.58 5.25-10.49 9.31-14.72 4.06-4.23 8.99-7.58 14.8-10.07 5.81-2.48 12.32-3.72 19.54-3.72s13.68 1.24 19.37 3.72c5.69 2.48 10.55 5.81 14.55 9.98 4 4.17 7.05 9.03 9.14 14.55 2.09 5.53 3.13 11.28 3.13 17.26 0 1.47-.03 2.88-.08 4.23-.06 1.35-.2 2.48-.42 3.38h-68.53c.34 3.5 1.18 6.6 2.54 9.31s3.1 5.02 5.25 6.94c2.14 1.92 4.57 3.38 7.28 4.4 2.71 1.01 5.53 1.52 8.46 1.52 4.51 0 8.77-1.1 12.77-3.3 4-2.2 6.74-5.1 8.21-8.71l19.46 5.42c-3.27 6.77-8.49 12.33-15.65 16.67-7.17 4.34-15.71 6.51-25.63 6.51Zm23.01-53.47c-.57-6.65-3.02-11.98-7.36-15.99-4.34-4-9.62-6.01-15.82-6.01-3.05 0-5.9.54-8.54 1.61a22.387 22.387 0 0 0-7.02 4.48c-2.03 1.92-3.7 4.23-4.99 6.94-1.3 2.71-2.06 5.7-2.28 8.97h46.02Z"/><rect width="125.67" height="167.6" x="415.68" rx="21.89" ry="21.89"/><path d="M526.4 109.88c0 6.19-1.27 11.76-3.8 16.71-2.54 4.95-6 9.22-10.39 12.81-4.39 3.59-9.5 6.34-15.31 8.26-5.82 1.92-12 2.88-18.56 2.88s-12.75-1.02-18.56-3.06c-5.82-2.04-10.89-4.92-15.22-8.63-4.33-3.71-7.73-8.1-10.21-13.18-2.48-5.07-3.71-10.64-3.71-16.71 0-3.71.62-7.15 1.86-10.3 1.24-3.16 2.85-6.03 4.83-8.63 1.98-2.6 4.18-4.89 6.59-6.87 2.41-1.98 4.85-3.59 7.33-4.83-4.58-2.23-8.48-5.57-11.7-10.02-3.22-4.45-4.82-9.34-4.82-14.66 0-5.94 1.33-11.17 3.99-15.68 2.66-4.52 6.12-8.32 10.39-11.42 4.27-3.09 8.97-5.44 14.11-7.05 5.13-1.61 10.24-2.41 15.31-2.41s10.05.77 15.31 2.32c5.26 1.55 9.99 3.87 14.2 6.96 4.21 3.09 7.67 6.9 10.39 11.42 2.72 4.52 4.08 9.75 4.08 15.68 0 2.6-.44 5.17-1.3 7.7-.87 2.54-2.07 4.89-3.62 7.05a30.577 30.577 0 0 1-5.47 5.85c-2.11 1.73-4.33 3.16-6.68 4.27 2.72 1.36 5.32 3.06 7.79 5.1 2.47 2.04 4.7 4.39 6.68 7.05 1.98 2.66 3.56 5.6 4.73 8.82 1.17 3.22 1.76 6.75 1.76 10.58Zm-25.24-1.49c0-3.09-.65-5.88-1.95-8.35-1.3-2.47-3.03-4.55-5.2-6.22-2.17-1.67-4.61-2.94-7.33-3.81-2.72-.86-5.51-1.3-8.35-1.3s-5.82.46-8.54 1.39c-2.72.93-5.1 2.26-7.15 3.99a20.06 20.06 0 0 0-4.92 6.22c-1.24 2.41-1.86 5.1-1.86 8.07s.65 5.66 1.95 8.07c1.3 2.41 3 4.49 5.11 6.22 2.1 1.73 4.52 3.06 7.24 3.99 2.72.93 5.5 1.39 8.35 1.39s5.81-.49 8.54-1.48c2.72-.99 5.13-2.35 7.24-4.08 2.1-1.73 3.77-3.8 5.01-6.22 1.24-2.41 1.86-5.04 1.86-7.89Zm-41.21-54.01c0 2.6.56 4.86 1.67 6.78 1.12 1.92 2.57 3.53 4.36 4.83 1.79 1.3 3.77 2.29 5.94 2.97 2.16.68 4.36 1.02 6.59 1.02 2.1 0 4.27-.34 6.5-1.02 2.23-.68 4.24-1.7 6.03-3.06s3.25-3 4.36-4.92c1.11-1.92 1.67-4.18 1.67-6.78 0-4.58-1.83-8.23-5.47-10.95-3.65-2.72-8.07-4.08-13.27-4.08s-9.41 1.39-12.99 4.18c-3.59 2.78-5.38 6.47-5.38 11.04Z" style="fill:#fff"/><path d="M592.68 116.59c-5.28 0-10.43-.87-15.44-2.6-5.02-1.73-9.34-4.24-12.98-7.53l4.02-5.97c3.81 3.11 7.68 5.45 11.61 7.01 3.94 1.56 8.15 2.33 12.65 2.33 5.45 0 9.8-1.1 13.04-3.31 3.24-2.21 4.87-5.34 4.87-9.41 0-1.9-.43-3.48-1.3-4.74-.87-1.25-2.14-2.36-3.83-3.31-1.69-.95-3.81-1.79-6.36-2.53-2.55-.73-5.51-1.49-8.89-2.27-3.89-.95-7.27-1.9-10.12-2.85-2.85-.95-5.21-2.03-7.07-3.24-1.86-1.21-3.24-2.7-4.15-4.48-.91-1.77-1.36-4-1.36-6.68 0-3.37.67-6.36 2.01-8.95 1.34-2.59 3.16-4.74 5.45-6.42 2.29-1.69 4.97-2.96 8.04-3.83 3.07-.86 6.34-1.3 9.8-1.3 5.19 0 9.9.84 14.14 2.53s7.66 3.92 10.25 6.68l-4.28 5.19c-2.51-2.6-5.56-4.54-9.15-5.84-3.59-1.3-7.33-1.95-11.22-1.95-2.34 0-4.5.24-6.49.71-1.99.48-3.74 1.23-5.25 2.27-1.51 1.04-2.7 2.36-3.57 3.96-.87 1.6-1.3 3.48-1.3 5.64 0 1.82.3 3.29.91 4.41.6 1.13 1.6 2.1 2.98 2.92 1.38.82 3.13 1.56 5.25 2.21 2.12.65 4.69 1.32 7.72 2.01 4.32 1.04 8.13 2.08 11.42 3.11 3.29 1.04 6.03 2.25 8.24 3.63s3.87 3.07 5 5.06c1.12 1.99 1.69 4.41 1.69 7.27 0 6.23-2.38 11.16-7.14 14.79-4.76 3.63-11.16 5.45-19.2 5.45ZM662.23 116.59c-4.93 0-9.43-.93-13.49-2.79-4.07-1.86-7.59-4.39-10.58-7.59-2.98-3.2-5.3-6.92-6.94-11.16-1.64-4.24-2.46-8.69-2.46-13.36s.84-9.26 2.53-13.5 4.02-7.96 7.01-11.16c2.98-3.2 6.51-5.75 10.58-7.66 4.06-1.9 8.52-2.85 13.36-2.85s9.32.95 13.43 2.85c4.11 1.9 7.66 4.46 10.64 7.66 2.98 3.2 5.32 6.92 7.01 11.16 1.69 4.24 2.53 8.74 2.53 13.5s-.82 9.13-2.47 13.36c-1.64 4.24-3.96 7.96-6.94 11.16-2.98 3.2-6.53 5.73-10.64 7.59-4.11 1.86-8.63 2.79-13.56 2.79Zm-24.52-34.77c0 3.81.65 7.33 1.95 10.57 1.3 3.24 3.05 6.1 5.25 8.56 2.21 2.46 4.8 4.39 7.79 5.77 2.98 1.38 6.16 2.08 9.54 2.08s6.55-.71 9.54-2.14a25.36 25.36 0 0 0 7.85-5.84c2.25-2.47 4.02-5.34 5.32-8.63 1.3-3.29 1.95-6.83 1.95-10.64s-.65-7.24-1.95-10.58c-1.3-3.33-3.07-6.23-5.32-8.69a25.36 25.36 0 0 0-7.85-5.84c-2.98-1.43-6.16-2.14-9.54-2.14s-6.53.71-9.47 2.14c-2.94 1.43-5.54 3.4-7.79 5.9-2.25 2.51-4.02 5.43-5.32 8.76-1.3 3.33-1.95 6.9-1.95 10.71ZM731.78 116.59c-7.35 0-12.83-2.44-16.41-7.33-3.59-4.89-5.38-12.17-5.38-21.86V47.69h8.82v38.15c0 15.31 5.23 22.97 15.7 22.97 2.6 0 5.15-.43 7.66-1.3a23.99 23.99 0 0 0 6.94-3.76c2.12-1.64 4.02-3.59 5.71-5.84 1.69-2.25 3.05-4.8 4.09-7.66V47.69h8.82v56.18c0 2.42 1.04 3.63 3.11 3.63v7.79c-1.04.17-1.88.26-2.53.26h-1.36c-2.08-.09-3.76-.82-5.06-2.21-1.3-1.38-1.95-3.24-1.95-5.58v-7.79c-2.94 5.28-6.94 9.37-12 12.26-5.06 2.9-10.45 4.35-16.15 4.35ZM844.54 115.29h-8.82V77.53c0-8.04-1.19-13.88-3.57-17.52-2.38-3.63-6.03-5.45-10.96-5.45-2.6 0-5.19.48-7.79 1.43-2.59.95-5 2.29-7.2 4.02-2.21 1.73-4.17 3.79-5.9 6.16a24.174 24.174 0 0 0-3.76 7.72v41.39h-8.82V47.69h8.04V63c2.77-4.93 6.73-8.91 11.87-11.94 5.15-3.03 10.75-4.54 16.8-4.54 3.72 0 6.88.69 9.47 2.08 2.59 1.38 4.67 3.33 6.23 5.84 1.56 2.51 2.68 5.58 3.37 9.21.69 3.63 1.04 7.66 1.04 12.07v39.58ZM891.12 116.59c-4.67 0-9-.97-12.98-2.92-3.98-1.95-7.4-4.52-10.25-7.72-2.85-3.2-5.08-6.9-6.68-11.09-1.6-4.19-2.4-8.58-2.4-13.17s.78-9.28 2.33-13.56c1.56-4.28 3.7-8.02 6.42-11.22 2.72-3.2 5.97-5.73 9.73-7.59 3.76-1.86 7.89-2.79 12.39-2.79 5.71 0 10.77 1.49 15.18 4.48 4.41 2.98 7.87 6.6 10.38 10.83V20.57h8.82v83.3c0 2.42 1.04 3.63 3.11 3.63v7.79c-1.3.26-2.33.39-3.11.39-2.08 0-3.89-.67-5.45-2.01-1.56-1.34-2.34-2.96-2.34-4.87v-6.62c-2.68 4.41-6.32 7.92-10.9 10.51-4.59 2.59-9.34 3.89-14.27 3.89Zm1.95-7.79c2.16 0 4.48-.43 6.94-1.3 2.46-.86 4.78-2.05 6.94-3.57 2.16-1.51 4-3.29 5.51-5.32 1.51-2.03 2.44-4.22 2.79-6.55V71.17c-.87-2.33-2.12-4.52-3.76-6.55a30.274 30.274 0 0 0-5.64-5.38 26.301 26.301 0 0 0-6.81-3.63c-2.42-.86-4.8-1.3-7.14-1.3-3.63 0-6.92.78-9.86 2.34a25.02 25.02 0 0 0-7.59 6.16c-2.12 2.55-3.74 5.47-4.87 8.76a31.191 31.191 0 0 0-1.69 10.12c0 3.63.65 7.09 1.95 10.38 1.3 3.29 3.07 6.16 5.32 8.63 2.25 2.47 4.91 4.43 7.98 5.9 3.07 1.47 6.38 2.21 9.93 2.21Z"/></svg>